<svg xmlns="http://www.w3.org/2000/svg" width="1200" height="320" viewBox="0 0 1200 320" fill="none" xml:space="preserve">
<style>
text{font-family:'JetBrains Mono','Fira Code','Cascadia Code',Consolas,'Courier New',monospace;white-space:pre;}
.tw{animation:tw 4s ease-in-out infinite;}
@keyframes tw{0%,100%{opacity:.12}50%{opacity:1}}
.blink{animation:blink 1.1s steps(1) infinite;}
@keyframes blink{50%{opacity:0}}
.sh{animation:sh 3.2s ease-in-out infinite;}
@keyframes sh{0%{transform:translateX(-160px)}100%{transform:translateX(990px)}}
</style>
<defs>
<linearGradient id="sky" x1="0" y1="0" x2="0" y2="1">
  <stop offset="0" stop-color="#020409"/><stop offset=".6" stop-color="#060a14"/><stop offset="1" stop-color="#0f1727"/>
</linearGradient>
<radialGradient id="mwBase"><stop offset="0" stop-color="#d6c5a5" stop-opacity=".45"/><stop offset=".5" stop-color="#bb8c82" stop-opacity=".12"/><stop offset="1" stop-color="#020409" stop-opacity="0"/></radialGradient>
<radialGradient id="vig" cx=".5" cy=".45" r=".75"><stop offset=".55" stop-color="#000" stop-opacity="0"/><stop offset="1" stop-color="#000" stop-opacity=".75"/></radialGradient>
<linearGradient id="beam" x1="0" y1="0" x2="0" y2="1">
  <stop offset="0" stop-color="#a9e2d4" stop-opacity="0"/><stop offset=".85" stop-color="#a9e2d4" stop-opacity=".07"/><stop offset=".985" stop-color="#a9e2d4" stop-opacity=".35"/><stop offset="1" stop-color="#a9e2d4" stop-opacity="0"/>
</linearGradient>
<linearGradient id="hglow" x1="0" y1="0" x2="0" y2="1">
  <stop offset="0" stop-color="#86ad9f" stop-opacity="0"/><stop offset=".7" stop-color="#86ad9f" stop-opacity=".07"/><stop offset="1" stop-color="#d6c5a5" stop-opacity=".16"/>
</linearGradient>
<pattern id="scanlines" width="4" height="3" patternUnits="userSpaceOnUse"><rect width="4" height="1" fill="#000" opacity=".35"/></pattern>
<filter id="blurL" x="-50%" y="-50%" width="200%" height="200%"><feGaussianBlur stdDeviation="38"/></filter>
<filter id="blurM" x="-50%" y="-50%" width="200%" height="200%"><feGaussianBlur stdDeviation="15"/></filter>
<filter id="blurS" x="-50%" y="-50%" width="200%" height="200%"><feGaussianBlur stdDeviation="4"/></filter>
<filter id="glow" x="-20%" y="-50%" width="140%" height="200%"><feGaussianBlur stdDeviation="3" result="b"/><feMerge><feMergeNode in="b"/><feMergeNode in="SourceGraphic"/></feMerge></filter>
<clipPath id="b0"><rect x="250" y="88" height="10" width="0" rx="2"><animate attributeName="width" from="0" to="788" begin="0.30s" dur="1.6s" fill="freeze" calcMode="spline" keyTimes="0;1" keySplines=".2 .8 .2 1"/></rect></clipPath><clipPath id="b1"><rect x="250" y="128" height="10" width="0" rx="2"><animate attributeName="width" from="0" to="747" begin="0.48s" dur="1.6s" fill="freeze" calcMode="spline" keyTimes="0;1" keySplines=".2 .8 .2 1"/></rect></clipPath><clipPath id="b2"><rect x="250" y="168" height="10" width="0" rx="2"><animate attributeName="width" from="0" to="706" begin="0.66s" dur="1.6s" fill="freeze" calcMode="spline" keyTimes="0;1" keySplines=".2 .8 .2 1"/></rect></clipPath><clipPath id="b3"><rect x="250" y="208" height="10" width="0" rx="2"><animate attributeName="width" from="0" to="664" begin="0.84s" dur="1.6s" fill="freeze" calcMode="spline" keyTimes="0;1" keySplines=".2 .8 .2 1"/></rect></clipPath><clipPath id="b4"><rect x="250" y="248" height="10" width="0" rx="2"><animate attributeName="width" from="0" to="622" begin="1.02s" dur="1.6s" fill="freeze" calcMode="spline" keyTimes="0;1" keySplines=".2 .8 .2 1"/></rect></clipPath>
<linearGradient id="bg" x1="250" y1="0" x2="1080" y2="0" gradientUnits="userSpaceOnUse"><stop offset="0" stop-color="#86ad9f"/><stop offset=".55" stop-color="#d6c5a5"/><stop offset="1" stop-color="#bb8c82"/></linearGradient>
<linearGradient id="shine" x1="0" y1="0" x2="1" y2="0"><stop offset="0" stop-color="#fff" stop-opacity="0"/><stop offset=".5" stop-color="#fff" stop-opacity=".65"/><stop offset="1" stop-color="#fff" stop-opacity="0"/></linearGradient>
</defs>
<rect x="1" y="1" width="1198" height="318" rx="14" fill="#070b14" stroke="#1b2336" stroke-width="1.5"/>
<g opacity=".55"><circle cx="310.8" cy="219.3" r="0.65" fill="#f4f7ff" opacity="0.68"/>
<circle cx="1043.1" cy="205.1" r="0.30" fill="#f4f7ff" opacity="0.39"/>
<circle cx="353.6" cy="138.1" r="1.09" fill="#d6c5a5" opacity="0.90"/>
<circle cx="1001.3" cy="27.2" r="0.94" fill="#f4f7ff" opacity="0.73"/>
<circle cx="1139.2" cy="254.0" r="0.31" fill="#f4f7ff" opacity="0.74"/>
<circle cx="677.0" cy="137.5" r="0.33" fill="#f4f7ff" opacity="0.68"/>
<circle cx="415.2" cy="190.3" r="0.56" fill="#f4f7ff" opacity="0.61"/>
<circle cx="898.1" cy="43.2" r="0.64" fill="#c4d8ff" opacity="0.44"/>
<circle cx="215.3" cy="114.0" r="0.33" fill="#f4f7ff" opacity="0.51"/>
<circle cx="156.9" cy="157.1" r="0.30" fill="#f4f7ff" opacity="0.71"/>
<circle cx="157.3" cy="137.7" r="0.55" fill="#c4d8ff" opacity="0.72"/>
<circle cx="1119.6" cy="13.8" r="0.30" fill="#c4d8ff" opacity="0.35"/>
<circle class="tw" cx="496.2" cy="277.8" r="1.49" fill="#f4f7ff" style="animation-duration:5.9s;animation-delay:-2.2s"/>
<circle class="tw" cx="859.8" cy="43.8" r="1.92" fill="#d6c5a5" style="animation-duration:4.5s;animation-delay:-5.2s"/>
<circle cx="51.1" cy="224.6" r="0.30" fill="#d6c5a5" opacity="0.47"/>
<circle cx="354.4" cy="52.6" r="0.65" fill="#f4f7ff" opacity="0.36"/>
<circle cx="515.0" cy="190.4" r="0.98" fill="#f4f7ff" opacity="0.79"/>
<circle class="tw" cx="774.1" cy="168.5" r="0.50" fill="#f4f7ff" style="animation-duration:3.7s;animation-delay:-1.6s"/>
<circle cx="716.7" cy="24.8" r="0.38" fill="#f4f7ff" opacity="0.27"/>
<circle cx="383.6" cy="49.6" r="0.46" fill="#c4d8ff" opacity="0.56"/>
<circle cx="803.4" cy="94.9" r="0.30" fill="#c4d8ff" opacity="0.35"/>
<circle class="tw" cx="175.6" cy="136.1" r="1.24" fill="#f4f7ff" style="animation-duration:4.9s;animation-delay:-2.1s"/>
<circle cx="293.1" cy="92.0" r="0.30" fill="#f4f7ff" opacity="0.46"/>
<circle cx="552.8" cy="21.9" r="0.30" fill="#f4f7ff" opacity="0.45"/>
<circle class="tw" cx="539.4" cy="317.3" r="0.54" fill="#f4f7ff" style="animation-duration:4.2s;animation-delay:-0.8s"/>
<circle cx="1036.3" cy="35.8" r="1.04" fill="#f4f7ff" opacity="0.64"/>
<circle cx="349.1" cy="111.2" r="0.30" fill="#c4d8ff" opacity="0.82"/>
<circle cx="1187.8" cy="13.9" r="0.43" fill="#f4f7ff" opacity="0.28"/>
<circle cx="200.0" cy="283.9" r="0.78" fill="#f4f7ff" opacity="0.84"/>
<circle cx="817.9" cy="28.7" r="1.51" fill="#f4f7ff" opacity="0.77"/>
<circle cx="256.5" cy="229.9" r="0.62" fill="#f4f7ff" opacity="0.85"/>
<circle cx="528.6" cy="183.4" r="0.54" fill="#c4d8ff" opacity="0.32"/>
<circle cx="164.6" cy="170.8" r="1.00" fill="#c4d8ff" opacity="0.35"/>
<circle class="tw" cx="654.6" cy="83.4" r="0.53" fill="#f4f7ff" style="animation-duration:2.6s;animation-delay:-3.1s"/>
<circle class="tw" cx="325.5" cy="29.1" r="0.52" fill="#f4f7ff" style="animation-duration:6.4s;animation-delay:-4.0s"/>
<circle cx="841.0" cy="293.9" r="0.30" fill="#f4f7ff" opacity="0.90"/>
<circle cx="565.5" cy="85.7" r="0.91" fill="#c4d8ff" opacity="0.59"/>
<circle cx="638.6" cy="88.4" r="0.30" fill="#f4f7ff" opacity="0.87"/>
<circle cx="450.0" cy="50.1" r="1.08" fill="#c4d8ff" opacity="0.35"/>
<circle cx="693.8" cy="306.6" r="0.37" fill="#f4f7ff" opacity="0.79"/>
<circle class="tw" cx="34.9" cy="289.8" r="0.59" fill="#c4d8ff" style="animation-duration:2.9s;animation-delay:-3.5s"/>
<circle cx="368.7" cy="283.3" r="0.40" fill="#c4d8ff" opacity="0.29"/>
<circle cx="846.5" cy="291.6" r="0.67" fill="#f4f7ff" opacity="0.26"/>
<circle cx="1034.7" cy="45.9" r="1.10" fill="#f4f7ff" opacity="0.73"/>
<circle cx="513.6" cy="240.3" r="0.30" fill="#f4f7ff" opacity="0.41"/>
<circle cx="636.4" cy="3.1" r="0.37" fill="#f4f7ff" opacity="0.65"/>
<circle cx="629.5" cy="317.6" r="0.30" fill="#c4d8ff" opacity="0.32"/>
<circle cx="1097.0" cy="298.2" r="1.01" fill="#f4f7ff" opacity="0.72"/>
<circle class="tw" cx="800.6" cy="189.0" r="0.51" fill="#f4f7ff" style="animation-duration:3.2s;animation-delay:-0.6s"/>
<circle cx="656.1" cy="45.3" r="0.77" fill="#f4f7ff" opacity="0.82"/>
<circle cx="457.3" cy="260.7" r="0.40" fill="#d6c5a5" opacity="0.29"/>
<circle cx="1030.9" cy="168.7" r="0.31" fill="#f4f7ff" opacity="0.84"/>
<circle cx="820.4" cy="120.1" r="0.30" fill="#c4d8ff" opacity="0.45"/>
<circle cx="1113.7" cy="8.4" r="0.71" fill="#f4f7ff" opacity="0.62"/>
<circle cx="899.7" cy="25.6" r="0.30" fill="#f4f7ff" opacity="0.89"/>
<circle class="tw" cx="1008.2" cy="169.9" r="0.56" fill="#c4d8ff" style="animation-duration:3.3s;animation-delay:-5.8s"/>
<circle cx="106.9" cy="36.1" r="0.30" fill="#f4f7ff" opacity="0.66"/>
<circle class="tw" cx="376.1" cy="317.3" r="0.50" fill="#f4f7ff" style="animation-duration:3.4s;animation-delay:-3.4s"/>
<circle cx="1060.2" cy="211.0" r="0.70" fill="#f4f7ff" opacity="0.80"/>
<circle cx="186.0" cy="17.3" r="0.54" fill="#c4d8ff" opacity="0.76"/>
<circle cx="899.9" cy="29.3" r="0.88" fill="#f4f7ff" opacity="0.41"/>
<circle class="tw" cx="337.9" cy="185.3" r="0.65" fill="#f4f7ff" style="animation-duration:5.4s;animation-delay:-0.6s"/>
<circle class="tw" cx="782.4" cy="51.4" r="1.37" fill="#f4f7ff" style="animation-duration:6.5s;animation-delay:-3.7s"/>
<circle cx="120.2" cy="157.8" r="0.51" fill="#f4f7ff" opacity="0.62"/>
<circle cx="504.1" cy="227.2" r="0.30" fill="#f4f7ff" opacity="0.33"/>
<circle cx="855.0" cy="156.8" r="0.68" fill="#f4f7ff" opacity="0.52"/>
<circle cx="167.1" cy="0.4" r="0.42" fill="#f4f7ff" opacity="0.53"/>
<circle cx="523.6" cy="114.2" r="0.32" fill="#f4f7ff" opacity="0.32"/>
<circle cx="890.5" cy="180.3" r="0.55" fill="#f4f7ff" opacity="0.64"/>
<circle cx="923.9" cy="157.4" r="0.45" fill="#f4f7ff" opacity="0.49"/>
<circle cx="24.5" cy="252.7" r="0.32" fill="#f4f7ff" opacity="0.30"/>
<circle class="tw" cx="290.8" cy="53.9" r="1.84" fill="#c4d8ff" style="animation-duration:4.3s;animation-delay:-0.6s"/>
<circle cx="1022.9" cy="164.0" r="0.37" fill="#f4f7ff" opacity="0.61"/>
<circle class="tw" cx="666.2" cy="60.3" r="0.51" fill="#f4f7ff" style="animation-duration:3.6s;animation-delay:-2.5s"/>
<circle cx="929.8" cy="61.0" r="1.39" fill="#f4f7ff" opacity="0.35"/>
<circle cx="925.3" cy="138.0" r="0.47" fill="#f4f7ff" opacity="0.39"/>
<circle class="tw" cx="794.8" cy="61.2" r="1.46" fill="#f4f7ff" style="animation-duration:5.3s;animation-delay:-2.7s"/>
<circle class="tw" cx="868.9" cy="195.8" r="0.54" fill="#c4d8ff" style="animation-duration:6.3s;animation-delay:-0.5s"/>
<circle cx="1163.0" cy="187.8" r="0.36" fill="#c4d8ff" opacity="0.58"/>
<circle cx="71.9" cy="255.2" r="0.57" fill="#f4f7ff" opacity="0.27"/></g>
<text x="36" y="46" font-size="15" fill="#d6c5a5"><tspan fill="#a9e2d4">&gt;</tspan> skill_matrix --scan --calibrated</text>
<text x="1164" y="46" font-size="11" fill="#7d869a" text-anchor="end" letter-spacing="2"><tspan class="blink" fill="#a9e2d4">●</tspan> ANALYZING</text>
<line x1="250" y1="76" x2="250" y2="270" stroke="#1b2336" stroke-dasharray="2 4"/><text x="250" y="290" font-size="10" fill="#3a4358" text-anchor="middle">0</text><line x1="333" y1="76" x2="333" y2="270" stroke="#1b2336" stroke-dasharray="2 4"/><text x="333" y="290" font-size="10" fill="#3a4358" text-anchor="middle">10</text><line x1="416" y1="76" x2="416" y2="270" stroke="#1b2336" stroke-dasharray="2 4"/><text x="416" y="290" font-size="10" fill="#3a4358" text-anchor="middle">20</text><line x1="499" y1="76" x2="499" y2="270" stroke="#1b2336" stroke-dasharray="2 4"/><text x="499" y="290" font-size="10" fill="#3a4358" text-anchor="middle">30</text><line x1="582" y1="76" x2="582" y2="270" stroke="#1b2336" stroke-dasharray="2 4"/><text x="582" y="290" font-size="10" fill="#3a4358" text-anchor="middle">40</text><line x1="665" y1="76" x2="665" y2="270" stroke="#1b2336" stroke-dasharray="2 4"/><text x="665" y="290" font-size="10" fill="#3a4358" text-anchor="middle">50</text><line x1="748" y1="76" x2="748" y2="270" stroke="#1b2336" stroke-dasharray="2 4"/><text x="748" y="290" font-size="10" fill="#3a4358" text-anchor="middle">60</text><line x1="831" y1="76" x2="831" y2="270" stroke="#1b2336" stroke-dasharray="2 4"/><text x="831" y="290" font-size="10" fill="#3a4358" text-anchor="middle">70</text><line x1="914" y1="76" x2="914" y2="270" stroke="#1b2336" stroke-dasharray="2 4"/><text x="914" y="290" font-size="10" fill="#3a4358" text-anchor="middle">80</text><line x1="997" y1="76" x2="997" y2="270" stroke="#1b2336" stroke-dasharray="2 4"/><text x="997" y="290" font-size="10" fill="#3a4358" text-anchor="middle">90</text><line x1="1080" y1="76" x2="1080" y2="270" stroke="#1b2336" stroke-dasharray="2 4"/><text x="1080" y="290" font-size="10" fill="#3a4358" text-anchor="middle">100</text>

<text x="36" y="98" font-size="15" fill="#e6e9ef">Security</text>
<rect x="250" y="88" width="830" height="10" rx="2" fill="#1b2336"/>
<rect x="250" y="88" height="10" width="0" rx="2" fill="url(#bg)"><animate attributeName="width" from="0" to="788" begin="0.30s" dur="1.6s" fill="freeze" calcMode="spline" keyTimes="0;1" keySplines=".2 .8 .2 1"/></rect>
<g clip-path="url(#b0)"><rect class="sh" x="250" y="88" width="140" height="10" fill="url(#shine)" style="animation-delay:0.00s"/></g>
<rect x="250" y="84" width="2" height="18" fill="#f4f7ff"><animate attributeName="x" from="250" to="1038" begin="0.30s" dur="1.6s" fill="freeze" calcMode="spline" keyTimes="0;1" keySplines=".2 .8 .2 1"/></rect>
<text x="1164" y="98" font-size="14" fill="#a9e2d4" text-anchor="end">95%</text>
<text x="36" y="138" font-size="15" fill="#e6e9ef">Python</text>
<rect x="250" y="128" width="830" height="10" rx="2" fill="#1b2336"/>
<rect x="250" y="128" height="10" width="0" rx="2" fill="url(#bg)"><animate attributeName="width" from="0" to="747" begin="0.48s" dur="1.6s" fill="freeze" calcMode="spline" keyTimes="0;1" keySplines=".2 .8 .2 1"/></rect>
<g clip-path="url(#b1)"><rect class="sh" x="250" y="128" width="140" height="10" fill="url(#shine)" style="animation-delay:0.35s"/></g>
<rect x="250" y="124" width="2" height="18" fill="#f4f7ff"><animate attributeName="x" from="250" to="997" begin="0.48s" dur="1.6s" fill="freeze" calcMode="spline" keyTimes="0;1" keySplines=".2 .8 .2 1"/></rect>
<text x="1164" y="138" font-size="14" fill="#a9e2d4" text-anchor="end">90%</text>
<text x="36" y="178" font-size="15" fill="#e6e9ef">C++</text>
<rect x="250" y="168" width="830" height="10" rx="2" fill="#1b2336"/>
<rect x="250" y="168" height="10" width="0" rx="2" fill="url(#bg)"><animate attributeName="width" from="0" to="706" begin="0.66s" dur="1.6s" fill="freeze" calcMode="spline" keyTimes="0;1" keySplines=".2 .8 .2 1"/></rect>
<g clip-path="url(#b2)"><rect class="sh" x="250" y="168" width="140" height="10" fill="url(#shine)" style="animation-delay:0.70s"/></g>
<rect x="250" y="164" width="2" height="18" fill="#f4f7ff"><animate attributeName="x" from="250" to="956" begin="0.66s" dur="1.6s" fill="freeze" calcMode="spline" keyTimes="0;1" keySplines=".2 .8 .2 1"/></rect>
<text x="1164" y="178" font-size="14" fill="#a9e2d4" text-anchor="end">85%</text>
<text x="36" y="218" font-size="15" fill="#e6e9ef">Flutter</text>
<rect x="250" y="208" width="830" height="10" rx="2" fill="#1b2336"/>
<rect x="250" y="208" height="10" width="0" rx="2" fill="url(#bg)"><animate attributeName="width" from="0" to="664" begin="0.84s" dur="1.6s" fill="freeze" calcMode="spline" keyTimes="0;1" keySplines=".2 .8 .2 1"/></rect>
<g clip-path="url(#b3)"><rect class="sh" x="250" y="208" width="140" height="10" fill="url(#shine)" style="animation-delay:1.05s"/></g>
<rect x="250" y="204" width="2" height="18" fill="#f4f7ff"><animate attributeName="x" from="250" to="914" begin="0.84s" dur="1.6s" fill="freeze" calcMode="spline" keyTimes="0;1" keySplines=".2 .8 .2 1"/></rect>
<text x="1164" y="218" font-size="14" fill="#a9e2d4" text-anchor="end">80%</text>
<text x="36" y="258" font-size="15" fill="#e6e9ef">Web Development</text>
<rect x="250" y="248" width="830" height="10" rx="2" fill="#1b2336"/>
<rect x="250" y="248" height="10" width="0" rx="2" fill="url(#bg)"><animate attributeName="width" from="0" to="622" begin="1.02s" dur="1.6s" fill="freeze" calcMode="spline" keyTimes="0;1" keySplines=".2 .8 .2 1"/></rect>
<g clip-path="url(#b4)"><rect class="sh" x="250" y="248" width="140" height="10" fill="url(#shine)" style="animation-delay:1.40s"/></g>
<rect x="250" y="244" width="2" height="18" fill="#f4f7ff"><animate attributeName="x" from="250" to="872" begin="1.02s" dur="1.6s" fill="freeze" calcMode="spline" keyTimes="0;1" keySplines=".2 .8 .2 1"/></rect>
<text x="1164" y="258" font-size="14" fill="#a9e2d4" text-anchor="end">75%</text>

</svg>
